<svg width="24" height="24" viewBox="0 0 24 24" fill="none" xmlns="http://www.w3.org/2000/svg">
<path d="M17.9998 7.90977C17.9698 7.90977 17.9498 7.90977 17.9198 7.90977H17.8698C15.9798 7.84977 14.5698 6.38977 14.5698 4.58977C14.5698 2.74977 16.0698 1.25977 17.8998 1.25977C19.7298 1.25977 21.2298 2.75977 21.2298 4.58977C21.2198 6.39977 19.8098 7.85977 18.0098 7.91977C18.0098 7.90977 18.0098 7.90977 17.9998 7.90977ZM17.8998 2.74977C16.8898 2.74977 16.0698 3.56977 16.0698 4.57977C16.0698 5.56977 16.8398 6.36977 17.8298 6.40977C17.8398 6.39977 17.9198 6.39977 18.0098 6.40977C18.9798 6.35977 19.7298 5.55977 19.7398 4.57977C19.7398 3.56977 18.9198 2.74977 17.8998 2.74977Z" fill="#959595"/>
<path d="M21.9702 12.0107C21.9702 11.9686 21.9677 11.9262 21.9644 11.8838C21.9675 11.9255 21.9702 11.9679 21.9702 12.0107ZM21.9702 12.0107C21.9702 12.0525 21.9677 12.0945 21.9644 12.1367C21.9674 12.0952 21.9702 12.0532 21.9702 12.0107ZM19.0376 14.4395C18.7063 14.4972 18.3622 14.5303 18.0103 14.5303C17.6588 14.5303 17.313 14.5036 16.9722 14.4424L16.9692 14.4414V14.4395C16.9699 14.4394 16.9717 14.439 16.9741 14.4395C17.6549 14.5557 18.3652 14.5547 19.0376 14.4395ZM19.2993 14.3877C19.2271 14.4038 19.1542 14.4182 19.0806 14.4316C19.154 14.4185 19.2269 14.4036 19.2993 14.3877ZM19.6431 14.2998C19.6071 14.3103 19.5711 14.3212 19.5347 14.3311C19.5711 14.3214 19.607 14.3102 19.6431 14.2998ZM19.9741 14.1924C19.954 14.1997 19.9338 14.2068 19.9136 14.2139C19.9338 14.2068 19.954 14.1997 19.9741 14.1924ZM20.6333 13.8945C20.6211 13.9013 20.6085 13.9074 20.5962 13.9141C20.6085 13.9074 20.6211 13.9013 20.6333 13.8945ZM20.9155 13.7236C20.9675 13.6893 21.0171 13.6517 21.0669 13.6143C21.0184 13.6513 20.9682 13.688 20.9155 13.7236ZM21.9604 12.1768C21.9583 12.1975 21.9566 12.2184 21.9536 12.2393C21.9564 12.2186 21.9584 12.1977 21.9604 12.1768ZM21.9507 11.7676C21.9542 11.7907 21.957 11.8138 21.9595 11.8369C21.957 11.8136 21.9541 11.7905 21.9507 11.7676ZM21.5249 10.8516C21.5661 10.9019 21.6048 10.9524 21.6401 11.0039C21.6039 10.9515 21.5655 10.9008 21.5249 10.8516ZM21.3315 10.6416C21.3849 10.6934 21.4345 10.7462 21.481 10.7998C21.4332 10.7452 21.3838 10.692 21.3315 10.6416ZM16.9409 9.59863C18.3174 9.35374 19.7118 9.59322 20.7183 10.1826L20.9136 10.3047C21.0604 10.4032 21.1908 10.5082 21.3062 10.6172C21.1851 10.5032 21.0547 10.3998 20.9194 10.3086L20.9165 10.3066L20.7114 10.1797C19.7345 9.61167 18.4314 9.39924 17.2017 9.56152L16.939 9.60254C16.9388 9.60041 16.9389 9.59881 16.939 9.59863H16.9409ZM20.9106 13.7285C20.9045 13.7326 20.8973 13.7352 20.8911 13.7393C20.8987 13.7343 20.907 13.7306 20.9146 13.7256C20.9132 13.7265 20.912 13.7276 20.9106 13.7285Z" fill="#959595" stroke="#959595" stroke-width="1.5"/>
<path d="M5.24561 7.03027C5.23748 7.02759 5.22928 7.02522 5.22119 7.02246C5.22924 7.02531 5.23752 7.0275 5.24561 7.03027ZM6.06006 2C6.35426 2.00001 6.6366 2.05315 6.90088 2.14551C6.64281 2.0588 6.36676 2.00977 6.07959 2.00977C4.65561 2.00998 3.49959 3.16583 3.49951 4.58984C3.49951 5.69332 4.18503 6.62111 5.15088 6.99512C4.1745 6.62981 3.48777 5.69645 3.47998 4.58984C3.48006 3.16267 4.64578 2 6.06006 2Z" fill="#959595" stroke="#959595" stroke-width="1.5"/>
<path d="M6.99609 14.4395L6.99902 14.4414L6.99707 14.4424C6.65634 14.5035 6.31124 14.5303 5.95996 14.5303C5.61081 14.5303 5.26937 14.4973 4.94043 14.4404C5.61052 14.5543 6.31791 14.5552 6.99609 14.4395ZM4.88281 14.4307C4.81085 14.4175 4.73955 14.4035 4.66895 14.3877C4.73975 14.4033 4.81101 14.4177 4.88281 14.4307ZM4.4043 14.3232C4.37871 14.3162 4.35349 14.3082 4.32812 14.3008C4.35353 14.3081 4.37871 14.3163 4.4043 14.3232ZM4.05176 14.2119C4.03357 14.2055 4.01512 14.2 3.99707 14.1934C4.01515 14.1999 4.03356 14.2056 4.05176 14.2119ZM3.37305 13.9141C3.36072 13.9074 3.34816 13.9013 3.33594 13.8945C3.34815 13.9013 3.36074 13.9074 3.37305 13.9141ZM3.05371 13.7246C3.06152 13.7298 3.07026 13.7341 3.07812 13.7393C3.07115 13.7347 3.06358 13.7311 3.05664 13.7266C3.05567 13.7259 3.05468 13.7253 3.05371 13.7246ZM2.84082 13.5674C2.7766 13.5158 2.71583 13.4633 2.65918 13.4092C2.71739 13.4646 2.77835 13.5172 2.84082 13.5674ZM2.63477 13.3857C2.5788 13.3309 2.5269 13.2747 2.47852 13.2178C2.52819 13.2758 2.58 13.3322 2.63477 13.3857ZM2.45508 13.1885C2.40919 13.1327 2.36595 13.0768 2.32715 13.0195C2.36695 13.0778 2.40988 13.1339 2.45508 13.1885ZM2.01758 12.2471C2.01388 12.222 2.01131 12.1969 2.00879 12.1719C2.01123 12.1971 2.01403 12.2222 2.01758 12.2471ZM2 12.0107C2 11.9697 2.00156 11.9282 2.00488 11.8867C2.00192 11.9275 2 11.9689 2 12.0107ZM3.05664 10.3027C4.07309 9.62571 5.56102 9.33767 7.02832 9.59863H7.03027L7.03125 9.59961L7.03027 9.60156C5.6372 9.35461 4.12545 9.60095 3.05762 10.3047H3.05664C2.99885 10.3428 2.94293 10.3839 2.8877 10.4258C2.94176 10.3841 2.99841 10.3434 3.05762 10.3037L3.05664 10.3027ZM3.0332 13.71C2.96783 13.6653 2.90565 13.6194 2.84668 13.5723C2.90731 13.6208 2.96974 13.6666 3.0332 13.71Z" fill="#959595" stroke="#959595" stroke-width="1.5"/>
<path d="M11.9998 15.3805C11.9698 15.3805 11.9498 15.3805 11.9198 15.3805H11.8698C9.97982 15.3205 8.56982 13.8605 8.56982 12.0605C8.56982 10.2205 10.0698 8.73047 11.8998 8.73047C13.7298 8.73047 15.2298 10.2305 15.2298 12.0605C15.2198 13.8705 13.8098 15.3305 12.0098 15.3905C12.0098 15.3805 12.0098 15.3805 11.9998 15.3805ZM11.8998 10.2205C10.8898 10.2205 10.0698 11.0405 10.0698 12.0505C10.0698 13.0405 10.8398 13.8405 11.8298 13.8805C11.8398 13.8705 11.9198 13.8705 12.0098 13.8805C12.9798 13.8305 13.7298 13.0305 13.7398 12.0505C13.7398 11.0505 12.9198 10.2205 11.8998 10.2205Z" fill="#959595"/>
<path d="M11.9998 22.7607C10.7998 22.7607 9.59978 22.4507 8.66978 21.8207C7.78978 21.2307 7.27979 20.3907 7.27979 19.4907C7.27979 18.6007 7.77978 17.7407 8.66978 17.1507C10.5398 15.9107 13.4698 15.9107 15.3298 17.1507C16.2098 17.7407 16.7198 18.5807 16.7198 19.4807C16.7198 20.3707 16.2198 21.2307 15.3298 21.8207C14.3998 22.4407 13.1998 22.7607 11.9998 22.7607ZM9.49979 18.4107C9.02979 18.7207 8.77979 19.1107 8.77979 19.5007C8.77979 19.8907 9.03979 20.2707 9.49979 20.5807C10.8498 21.4907 13.1398 21.4907 14.4898 20.5807C14.9598 20.2707 15.2098 19.8807 15.2098 19.4907C15.2098 19.1007 14.9498 18.7207 14.4898 18.4107C13.1498 17.5007 10.8598 17.5107 9.49979 18.4107Z" fill="#959595"/>
</svg>
