<svg width="23" height="20" viewBox="0 0 23 20" fill="none" xmlns="http://www.w3.org/2000/svg">
<path d="M0 18H22.5V19.5H0V18ZM3.375 5.25001C3.07663 5.25001 2.79048 5.36854 2.5795 5.57951C2.36853 5.79049 2.25 6.07664 2.25 6.37501V16.5H6.75V6.37501C6.75 6.07664 6.63147 5.79049 6.4205 5.57951C6.20952 5.36854 5.92337 5.25001 5.625 5.25001H3.375ZM10.125 11.25C9.82663 11.25 9.54048 11.3685 9.3295 11.5795C9.11853 11.7905 9 12.0766 9 12.375V16.5H13.5V12.375C13.5 12.0766 13.3815 11.7905 13.1705 11.5795C12.9595 11.3685 12.6734 11.25 12.375 11.25H10.125ZM16.875 13.5C16.5766 13.5 16.2905 13.6185 16.0795 13.8295C15.8685 14.0405 15.75 14.3266 15.75 14.625V16.5H20.25V14.625C20.25 14.3266 20.1315 14.0405 19.9205 13.8295C19.7095 13.6185 19.4234 13.5 19.125 13.5H16.875ZM9.225 6.81001C9.47429 7.6396 9.92754 8.39347 10.5433 9.00271C11.1591 9.61194 11.9178 10.0571 12.75 10.2975C13.2386 10.4325 13.7431 10.5006 14.25 10.5C15.6424 10.5 16.9777 9.94689 17.9623 8.96232C18.9469 7.97775 19.5 6.6424 19.5 5.25001C19.5 5.0511 19.421 4.86033 19.2803 4.71968C19.1397 4.57903 18.9489 4.50001 18.75 4.50001H16.125C15.8266 4.50001 15.5405 4.38148 15.3295 4.17051C15.1185 3.95953 15 3.67338 15 3.37501V0.75001C15 0.551098 14.921 0.360333 14.7803 0.21968C14.6397 0.079028 14.4489 1.02377e-05 14.25 1.02377e-05C13.4669 -0.00153608 12.6935 0.172105 11.9862 0.508215C11.2789 0.844324 10.6558 1.33439 10.1625 1.94251C9.62211 2.6164 9.25428 3.41195 9.09092 4.26015C8.92755 5.10836 8.97357 5.98361 9.225 6.81001Z" fill="#959595"/>
</svg>
