<svg width="24" height="24" viewBox="0 0 24 24" fill="none" xmlns="http://www.w3.org/2000/svg">
<path d="M15.24 22.2705H15.11C10.67 22.2705 8.53002 20.5205 8.16002 16.6005C8.12002 16.1905 8.42002 15.8205 8.84002 15.7805C9.24002 15.7405 9.62002 16.0505 9.66002 16.4605C9.95002 19.6005 11.43 20.7705 15.12 20.7705H15.25C19.32 20.7705 20.76 19.3305 20.76 15.2605V8.74047C20.76 4.67047 19.32 3.23047 15.25 3.23047H15.12C11.41 3.23047 9.93002 4.42047 9.66002 7.62047C9.61002 8.03047 9.26002 8.34047 8.84002 8.30047C8.42002 8.27047 8.12001 7.90047 8.15001 7.49047C8.49001 3.51047 10.64 1.73047 15.11 1.73047H15.24C20.15 1.73047 22.25 3.83047 22.25 8.74047V15.2605C22.25 20.1705 20.15 22.2705 15.24 22.2705Z" fill="#959595"/>
<path d="M3.62012 11.75H15C15.1339 11.75 15.25 11.8661 15.25 12C15.25 12.1339 15.1339 12.25 15 12.25H3.62012C3.48626 12.25 3.37012 12.1339 3.37012 12C3.37012 11.8661 3.48626 11.75 3.62012 11.75Z" fill="#959595" stroke="#959595"/>
<path d="M5.67334 8.47363C5.76808 8.37889 5.93212 8.37889 6.02686 8.47363C6.12114 8.56833 6.12118 8.73151 6.02686 8.82617L2.85303 12L6.02686 15.1738C6.12108 15.2686 6.12125 15.4318 6.02686 15.5264L6.02002 15.5322L6.01416 15.5391C5.98384 15.5713 5.92513 15.5996 5.8501 15.5996C5.78555 15.5996 5.72463 15.5777 5.67334 15.5264L2.32373 12.1768C2.22899 12.082 2.22899 11.918 2.32373 11.8232L5.67334 8.47363Z" fill="#959595" stroke="#959595"/>
</svg>
